<svg version="1.1" id="Layer_1" xmlns="http://www.w3.org/2000/svg" xmlns:xlink="http://www.w3.org/1999/xlink" x="0px" y="0px"
	 width="100%" viewBox="0 0 225 225" enable-background="new 0 0 225 225" xml:space="preserve">
<path fill="#000000" opacity="1.000000" stroke="none"
	d="
M154.000000,226.000000 
	C102.666672,226.000000 51.833340,226.000000 1.000007,226.000000 
	C1.000005,151.000000 1.000005,76.000015 1.000002,1.000017 
	C75.999992,1.000011 150.999985,1.000011 225.999969,1.000006 
	C225.999985,75.999985 225.999985,150.999969 226.000000,225.999969 
	C202.166672,226.000000 178.333328,226.000000 154.000000,226.000000 
M166.252563,53.619194 
	C166.469315,53.314232 166.686066,53.009274 167.101074,52.006142 
	C170.097458,45.710011 169.242493,40.751877 164.573624,37.349014 
	C159.939667,33.971592 154.719742,34.678272 149.813293,39.526955 
	C142.822784,46.435162 135.879852,53.392483 128.983276,60.394501 
	C123.107018,66.360611 123.037506,71.914108 128.808395,77.775658 
	C135.822037,84.899445 142.903168,91.957954 150.026779,98.971909 
	C155.177002,104.042862 161.475189,104.365883 165.959000,99.944420 
	C170.373703,95.591103 170.048416,89.160782 165.079300,83.969482 
	C160.712616,79.407562 156.283005,74.905907 151.941040,69.504951 
	C151.932343,68.922211 151.923645,68.339470 152.067078,67.229790 
	C152.630936,66.791794 153.194794,66.353798 154.444794,65.821922 
	C154.934982,65.134750 155.425171,64.447578 156.005783,63.322624 
	C156.175919,63.036556 156.427231,62.901176 157.445419,62.822212 
	C157.935852,62.135544 158.426300,61.448875 159.078094,60.239338 
	C159.639175,59.798702 160.200241,59.358070 161.446976,58.822540 
	C161.936615,58.135227 162.426254,57.447918 163.006058,56.322716 
	C163.176147,56.036697 163.427429,55.901081 164.435852,55.829739 
	C164.914932,55.158440 165.394012,54.487144 165.893021,53.926941 
	C165.893021,53.926941 165.780273,53.932270 166.252563,53.619194 
M77.092499,81.823082 
	C71.437119,77.072792 65.970398,76.859573 61.587738,81.218346 
	C57.325645,85.457207 57.182877,91.767128 61.775570,96.389198 
	C77.836021,112.552399 94.009567,128.604065 110.236282,144.600571 
	C113.800041,148.113770 117.714195,147.844162 121.266846,144.381348 
	C127.943405,137.873627 127.975159,132.764252 121.394516,126.129662 
	C107.230484,111.849525 93.070755,97.565125 78.613121,82.792007 
	C78.314949,82.558060 78.016769,82.324120 77.092499,81.823082 
M91.772713,83.726151 
	C112.110359,103.913902 132.436996,124.112793 152.816467,144.258240 
	C153.894119,145.323517 155.846359,146.936752 156.661880,146.588150 
	C160.321487,145.023804 164.343552,143.458252 167.040482,140.717758 
	C170.038086,137.671722 169.840607,133.128250 167.161819,129.627029 
	C164.497894,126.145218 161.182922,123.161736 158.155670,119.957626 
	C153.435104,114.961266 148.828293,109.851074 143.965500,104.997261 
	C139.102753,100.143524 133.844208,95.684731 129.010452,90.803940 
	C120.952217,82.667274 113.217850,74.208633 105.119034,66.113754 
	C96.199554,57.198593 87.014450,48.549431 77.961060,39.767895 
	C72.424156,34.397251 66.263481,33.926693 61.656601,38.565453 
	C57.197437,43.055473 57.721611,49.570587 63.028709,54.906288 
	C72.430626,64.358879 81.858742,73.785408 91.772713,83.726151 
M68.469292,145.234039 
	C74.962357,147.366043 79.498871,146.088623 82.382553,141.316269 
	C85.209290,136.638138 84.401749,132.100601 79.851242,127.398048 
	C78.348228,125.844833 76.867203,124.241493 75.191658,122.889702 
	C70.853752,119.389992 65.012543,119.729301 61.146851,123.563652 
	C57.241516,127.437332 56.754120,133.253143 60.352573,137.578506 
	C62.569229,140.242950 65.306801,142.473999 68.469292,145.234039 
M138.191483,180.018890 
	C138.385757,174.433517 138.712097,168.846588 138.646393,163.264282 
	C138.635239,162.316757 136.940323,161.389038 136.023331,160.452164 
	C135.575272,160.779892 135.127228,161.107605 134.679169,161.435318 
	C134.679169,165.238846 134.679169,169.042358 134.679169,172.987747 
	C129.693192,169.486938 129.779434,161.565842 122.049728,160.619385 
	C122.049728,166.692017 121.909569,172.159592 122.168785,177.608185 
	C122.220207,178.689148 123.803612,179.697220 124.680557,180.738907 
	C125.014793,180.417618 125.349030,180.096329 125.683266,179.775040 
	C125.951996,176.581360 126.220734,173.387680 126.489464,170.194000 
	C126.991257,170.167557 127.493050,170.141098 127.994835,170.114655 
	C129.732132,172.690186 131.292267,175.414749 133.280914,177.778839 
	C134.286301,178.974045 136.066727,179.517303 138.191483,180.018890 
M74.289085,176.542969 
	C73.975853,177.722183 73.662628,178.901398 73.151123,180.827042 
	C76.675117,179.343460 79.454102,177.271088 82.247368,177.251648 
	C85.035271,177.232224 87.837494,179.269180 91.560829,180.781219 
	C89.230927,174.370972 87.353889,168.910965 85.211632,163.557083 
	C84.772255,162.459030 83.182190,160.919113 82.401993,161.066116 
	C81.157471,161.300629 79.653603,162.564270 79.128738,163.770889 
	C77.413651,167.713791 76.091415,171.827591 74.289085,176.542969 
M63.908981,160.891647 
	C60.285347,160.891647 56.661716,160.891647 52.668583,160.891647 
	C52.668583,166.140854 52.478985,170.960266 52.765057,175.751282 
	C52.874306,177.580963 54.050861,180.872177 54.778877,180.882706 
	C58.459793,180.935989 62.879982,182.985550 66.724297,177.823242 
	C62.624004,177.473785 59.637505,177.219254 56.591709,176.959656 
	C56.591709,175.222229 56.591709,173.809021 56.591709,172.180511 
	C59.459026,172.006073 62.124073,171.843933 64.789124,171.681793 
	C64.840652,171.042252 64.892181,170.402710 64.943710,169.763168 
	C62.209896,169.367065 59.476082,168.970963 56.589901,168.552795 
	C56.589901,167.109421 56.589901,165.704315 56.589901,163.836838 
	C58.921421,163.836838 61.054371,163.849411 63.187103,163.833328 
	C65.340340,163.817093 66.389458,163.153534 63.908981,160.891647 
M102.581734,160.877121 
	C100.133492,160.549255 98.954048,161.318573 99.079155,164.086151 
	C99.281029,168.551941 98.966301,173.044113 99.249237,177.501068 
	C99.320473,178.623169 100.832169,179.653839 101.681885,180.726517 
	C102.070679,180.418457 102.459473,180.110413 102.848267,179.802368 
	C102.956345,177.545212 103.064415,175.288055 103.171608,173.049255 
	C109.039192,171.938126 106.362106,182.322815 113.327461,179.867615 
	C112.145248,177.327026 111.053520,174.980865 109.961792,172.634720 
	C110.456009,172.688309 110.950233,172.741898 111.444458,172.795486 
	C111.960144,169.994293 113.631546,166.654419 112.650970,164.550644 
	C111.755898,162.630356 108.007477,162.003815 105.471100,160.912918 
	C104.911537,160.672241 104.160339,160.877106 102.581734,160.877121 
M164.394424,164.473969 
	C166.891159,162.482895 171.374344,165.878250 173.735535,161.150360 
	C168.884842,161.150360 164.847076,161.150360 160.381302,161.150360 
	C160.381302,166.898590 160.253708,172.358276 160.492020,177.801941 
	C160.538101,178.854706 162.014435,179.844864 162.830994,180.863892 
	C163.236816,180.581390 163.642639,180.298889 164.048447,180.016388 
	C164.198257,177.442245 164.348053,174.868103 164.499130,172.272034 
	C167.061874,172.086990 169.303436,171.925140 171.545013,171.763290 
	C171.656433,171.179306 171.767868,170.595322 171.879303,170.011322 
	C170.344528,169.690002 168.780869,169.004684 167.281067,169.123779 
	C164.237289,169.365463 164.042404,167.685638 164.394424,164.473969 
M190.209106,165.618103 
	C189.675018,166.745972 189.140930,167.873856 188.744400,168.711212 
	C185.022064,167.174850 186.877823,159.861038 181.172394,160.927261 
	C182.947464,167.016205 184.522888,172.797073 186.396896,178.479446 
	C186.710968,179.431778 188.319016,179.957382 188.511261,180.094940 
	C191.100876,173.358109 193.416428,167.334229 195.761047,161.234726 
	C192.214645,159.605942 191.651230,162.646637 190.209106,165.618103 
M43.828533,177.870468 
	C41.259289,177.587753 38.690044,177.305023 35.706467,176.976715 
	C35.706467,172.559265 35.623081,168.264816 35.734562,163.975433 
	C35.814388,160.903900 34.653294,160.180313 31.850008,161.537872 
	C31.850008,166.243530 31.674591,170.900452 31.934633,175.532944 
	C32.041626,177.438919 32.895794,180.801529 33.736916,180.907501 
	C37.315029,181.358292 41.272614,181.858276 43.828533,177.870468 
M150.439453,160.909103 
	C149.522766,161.839478 147.873596,162.725555 147.814224,163.707764 
	C147.533859,168.345917 147.585876,173.014481 147.772919,177.662003 
	C147.811279,178.615509 148.935211,179.525330 149.558746,180.455276 
	C150.229156,179.548523 151.465973,178.648590 151.476974,177.733902 
	C151.542770,172.268723 151.325974,166.800125 150.439453,160.909103 
z"/>
<path fill="#FDFAFA" opacity="1.000000" stroke="none" 
	d="
M91.524307,83.474495 
	C81.858742,73.785408 72.430626,64.358879 63.028709,54.906288 
	C57.721611,49.570587 57.197437,43.055473 61.656601,38.565453 
	C66.263481,33.926693 72.424156,34.397251 77.961060,39.767895 
	C87.014450,48.549431 96.199554,57.198593 105.119034,66.113754 
	C113.217850,74.208633 120.952217,82.667274 129.010452,90.803940 
	C133.844208,95.684731 139.102753,100.143524 143.965500,104.997261 
	C148.828293,109.851074 153.435104,114.961266 158.155670,119.957626 
	C161.182922,123.161736 164.497894,126.145218 167.161819,129.627029 
	C169.840607,133.128250 170.038086,137.671722 167.040482,140.717758 
	C164.343552,143.458252 160.321487,145.023804 156.661880,146.588150 
	C155.846359,146.936752 153.894119,145.323517 152.816467,144.258240 
	C132.436996,124.112793 112.110359,103.913902 91.524307,83.474495 
z"/>
<path fill="#FDFBFB" opacity="1.000000" stroke="none" 
	d="
M78.909264,83.282471 
	C93.070755,97.565125 107.230484,111.849525 121.394516,126.129662 
	C127.975159,132.764252 127.943405,137.873627 121.266846,144.381348 
	C117.714195,147.844162 113.800041,148.113770 110.236282,144.600571 
	C94.009567,128.604065 77.836021,112.552399 61.775570,96.389198 
	C57.182877,91.767128 57.325645,85.457207 61.587738,81.218346 
	C65.970398,76.859573 71.437119,77.072792 77.525414,82.224716 
	C78.275307,82.845047 78.592285,83.063759 78.909264,83.282471 
z"/>
<path fill="#FDFBFB" opacity="1.000000" stroke="none" 
	d="
M156.759705,62.916485 
	C156.427231,62.901176 156.175919,63.036556 155.675201,63.670090 
	C154.815979,64.650299 154.287308,65.283051 153.758652,65.915794 
	C153.194794,66.353798 152.630936,66.791794 151.668365,67.665604 
	C151.473480,68.860153 151.677338,69.618896 151.881180,70.377640 
	C156.283005,74.905907 160.712616,79.407562 165.079300,83.969482 
	C170.048416,89.160782 170.373703,95.591103 165.959000,99.944420 
	C161.475189,104.365883 155.177002,104.042862 150.026779,98.971909 
	C142.903168,91.957954 135.822037,84.899445 128.808395,77.775658 
	C123.037506,71.914108 123.107018,66.360611 128.983276,60.394501 
	C135.879852,53.392483 142.822784,46.435162 149.813293,39.526955 
	C154.719742,34.678272 159.939667,33.971592 164.573624,37.349014 
	C169.242493,40.751877 170.097458,45.710011 166.736816,52.476311 
	C166.175125,53.275078 165.977707,53.603676 165.780273,53.932270 
	C165.780273,53.932270 165.893021,53.926941 165.600159,53.989624 
	C164.791489,54.673489 164.275681,55.294678 163.759872,55.915863 
	C163.427429,55.901081 163.176147,56.036697 162.675858,56.670582 
	C161.817551,57.651443 161.289429,58.284439 160.761322,58.917435 
	C160.200241,59.358070 159.639175,59.798702 158.712097,60.629292 
	C157.817291,61.651657 157.288498,62.284073 156.759705,62.916485 
z"/>
<path fill="#FDF9F9" opacity="1.000000" stroke="none" 
	d="
M68.139893,145.066833 
	C65.306801,142.473999 62.569229,140.242950 60.352573,137.578506 
	C56.754120,133.253143 57.241516,127.437332 61.146851,123.563652 
	C65.012543,119.729301 70.853752,119.389992 75.191658,122.889702 
	C76.867203,124.241493 78.348228,125.844833 79.851242,127.398048 
	C84.401749,132.100601 85.209290,136.638138 82.382553,141.316269 
	C79.498871,146.088623 74.962357,147.366043 68.139893,145.066833 
z"/>
<path fill="#F8ECEB" opacity="1.000000" stroke="none" 
	d="
M137.844101,180.187103 
	C136.066727,179.517303 134.286301,178.974045 133.280914,177.778839 
	C131.292267,175.414749 129.732132,172.690186 127.994835,170.114655 
	C127.493050,170.141098 126.991257,170.167557 126.489464,170.194000 
	C126.220734,173.387680 125.951996,176.581360 125.683266,179.775040 
	C125.349030,180.096329 125.014793,180.417618 124.680557,180.738907 
	C123.803612,179.697220 122.220207,178.689148 122.168785,177.608185 
	C121.909569,172.159592 122.049728,166.692017 122.049728,160.619385 
	C129.779434,161.565842 129.693192,169.486938 134.679169,172.987747 
	C134.679169,169.042358 134.679169,165.238846 134.679169,161.435318 
	C135.127228,161.107605 135.575272,160.779892 136.023331,160.452164 
	C136.940323,161.389038 138.635239,162.316757 138.646393,163.264282 
	C138.712097,168.846588 138.385757,174.433517 137.844101,180.187103 
z"/>
<path fill="#F7EBE9" opacity="1.000000" stroke="none" 
	d="
M74.453583,176.209320 
	C76.091415,171.827591 77.413651,167.713791 79.128738,163.770889 
	C79.653603,162.564270 81.157471,161.300629 82.401993,161.066116 
	C83.182190,160.919113 84.772255,162.459030 85.211632,163.557083 
	C87.353889,168.910965 89.230927,174.370972 91.560829,180.781219 
	C87.837494,179.269180 85.035271,177.232224 82.247368,177.251648 
	C79.454102,177.271088 76.675117,179.343460 73.151123,180.827042 
	C73.662628,178.901398 73.975853,177.722183 74.453583,176.209320 
z"/>
<path fill="#F9EFEE" opacity="1.000000" stroke="none" 
	d="
M64.341064,160.949814 
	C66.389458,163.153534 65.340340,163.817093 63.187103,163.833328 
	C61.054371,163.849411 58.921421,163.836838 56.589901,163.836838 
	C56.589901,165.704315 56.589901,167.109421 56.589901,168.552795 
	C59.476082,168.970963 62.209896,169.367065 64.943710,169.763168 
	C64.892181,170.402710 64.840652,171.042252 64.789124,171.681793 
	C62.124073,171.843933 59.459026,172.006073 56.591709,172.180511 
	C56.591709,173.809021 56.591709,175.222229 56.591709,176.959656 
	C59.637505,177.219254 62.624004,177.473785 66.724297,177.823242 
	C62.879982,182.985550 58.459793,180.935989 54.778877,180.882706 
	C54.050861,180.872177 52.874306,177.580963 52.765057,175.751282 
	C52.478985,170.960266 52.668583,166.140854 52.668583,160.891647 
	C56.661716,160.891647 60.285347,160.891647 64.341064,160.949814 
z"/>
<path fill="#F8EFED" opacity="1.000000" stroke="none" 
	d="
M103.039566,160.876968 
	C104.160339,160.877106 104.911537,160.672241 105.471100,160.912918 
	C108.007477,162.003815 111.755898,162.630356 112.650970,164.550644 
	C113.631546,166.654419 111.960144,169.994293 111.444458,172.795486 
	C110.950233,172.741898 110.456009,172.688309 109.961792,172.634720 
	C111.053520,174.980865 112.145248,177.327026 113.327461,179.867615 
	C106.362106,182.322815 109.039192,171.938126 103.171608,173.049255 
	C103.064415,175.288055 102.956345,177.545212 102.848267,179.802368 
	C102.459473,180.110413 102.070679,180.418457 101.681885,180.726517 
	C100.832169,179.653839 99.320473,178.623169 99.249237,177.501068 
	C98.966301,173.044113 99.281029,168.551941 99.079155,164.086151 
	C98.954048,161.318573 100.133492,160.549255 103.039566,160.876968 
M106.092529,163.943512 
	C100.205246,163.799622 104.043640,167.771637 104.028214,170.783417 
	C105.834785,169.803146 107.641357,168.822876 109.447922,167.842606 
	C108.606544,166.551117 107.765175,165.259613 106.092529,163.943512 
z"/>
<path fill="#F6E4E2" opacity="1.000000" stroke="none" 
	d="
M164.332718,164.966949 
	C164.042404,167.685638 164.237289,169.365463 167.281067,169.123779 
	C168.780869,169.004684 170.344528,169.690002 171.879303,170.011322 
	C171.767868,170.595322 171.656433,171.179306 171.545013,171.763290 
	C169.303436,171.925140 167.061874,172.086990 164.499130,172.272034 
	C164.348053,174.868103 164.198257,177.442245 164.048447,180.016388 
	C163.642639,180.298889 163.236816,180.581390 162.830994,180.863892 
	C162.014435,179.844864 160.538101,178.854706 160.492020,177.801941 
	C160.253708,172.358276 160.381302,166.898590 160.381302,161.150360 
	C164.847076,161.150360 168.884842,161.150360 173.735535,161.150360 
	C171.374344,165.878250 166.891159,162.482895 164.332718,164.966949 
z"/>
<path fill="#F8ECEB" opacity="1.000000" stroke="none" 
	d="
M190.409973,165.291946 
	C191.651230,162.646637 192.214645,159.605942 195.761047,161.234726 
	C193.416428,167.334229 191.100876,173.358109 188.511261,180.094940 
	C188.319016,179.957382 186.710968,179.431778 186.396896,178.479446 
	C184.522888,172.797073 182.947464,167.016205 181.172394,160.927261 
	C186.877823,159.861038 185.022064,167.174850 188.744400,168.711212 
	C189.140930,167.873856 189.675018,166.745972 190.409973,165.291946 
z"/>
<path fill="#F6E3E3" opacity="1.000000" stroke="none" 
	d="
M43.982014,178.206726 
	C41.272614,181.858276 37.315029,181.358292 33.736916,180.907501 
	C32.895794,180.801529 32.041626,177.438919 31.934633,175.532944 
	C31.674591,170.900452 31.850008,166.243530 31.850008,161.537872 
	C34.653294,160.180313 35.814388,160.903900 35.734562,163.975433 
	C35.623081,168.264816 35.706467,172.559265 35.706467,176.976715 
	C38.690044,177.305023 41.259289,177.587753 43.982014,178.206726 
z"/>
<path fill="#F5DEDD" opacity="1.000000" stroke="none" 
	d="
M150.821716,161.120895 
	C151.325974,166.800125 151.542770,172.268723 151.476974,177.733902 
	C151.465973,178.648590 150.229156,179.548523 149.558746,180.455276 
	C148.935211,179.525330 147.811279,178.615509 147.772919,177.662003 
	C147.585876,173.014481 147.533859,168.345917 147.814224,163.707764 
	C147.873596,162.725555 149.522766,161.839478 150.821716,161.120895 
z"/>
<path fill="#CA0000" opacity="1.000000" stroke="none" 
	d="
M154.101715,65.868858 
	C154.287308,65.283051 154.815979,64.650299 155.630005,63.888985 
	C155.425171,64.447578 154.934982,65.134750 154.101715,65.868858 
z"/>
<path fill="#CA0000" opacity="1.000000" stroke="none" 
	d="
M157.102570,62.869347 
	C157.288498,62.284073 157.817291,61.651657 158.631409,60.890724 
	C158.426300,61.448875 157.935852,62.135544 157.102570,62.869347 
z"/>
<path fill="#CA0000" opacity="1.000000" stroke="none" 
	d="
M161.104156,58.869987 
	C161.289429,58.284439 161.817551,57.651443 162.630768,56.889526 
	C162.426254,57.447918 161.936615,58.135227 161.104156,58.869987 
z"/>
<path fill="#CA0000" opacity="1.000000" stroke="none" 
	d="
M164.097870,55.872803 
	C164.275681,55.294678 164.791489,54.673489 165.590179,53.934074 
	C165.394012,54.487144 164.914932,55.158440 164.097870,55.872803 
z"/>
<path fill="#CA0000" opacity="1.000000" stroke="none" 
	d="
M151.911102,69.941299 
	C151.677338,69.618896 151.473480,68.860153 151.592285,67.929070 
	C151.923645,68.339470 151.932343,68.922211 151.911102,69.941299 
z"/>
<path fill="#CA0000" opacity="1.000000" stroke="none" 
	d="
M166.016418,53.775734 
	C165.977707,53.603676 166.175125,53.275078 166.637680,52.825394 
	C166.686066,53.009274 166.469315,53.314232 166.016418,53.775734 
z"/>
<path fill="#C60000" opacity="1.000000" stroke="none" 
	d="
M78.761192,83.037239 
	C78.592285,83.063759 78.275307,82.845047 77.838463,82.358261 
	C78.016769,82.324120 78.314949,82.558060 78.761192,83.037239 
z"/>
<path fill="#CA0F0F" opacity="1.000000" stroke="none" 
	d="
M106.508163,163.955811 
	C107.765175,165.259613 108.606544,166.551117 109.447922,167.842606 
	C107.641357,168.822876 105.834785,169.803146 104.028214,170.783417 
	C104.043640,167.771637 100.205246,163.799622 106.508163,163.955811 
z"/>
</svg>